<svg width="153" height="192" viewBox="0 0 153 192" fill="none" xmlns="http://www.w3.org/2000/svg">
<g filter="url(#filter0_dd_8308_215)">
<path d="M42.8173 130.826L42.8134 130.825C41.9637 130.473 41.4061 129.64 41.4061 128.717V23.2812C41.4061 22.0199 42.426 21 43.6874 21H109.312C110.574 21 111.594 22.0198 111.594 23.2812C111.594 23.2813 111.594 23.2813 111.594 23.2814V128.718C111.594 129.64 111.036 130.473 110.187 130.825L110.181 130.827C109.359 131.173 108.364 130.995 107.7 130.33C104.966 127.597 100.534 127.597 97.8003 130.33C96.9092 131.222 95.4658 131.222 94.5746 130.33C91.8411 127.597 87.4089 127.597 84.6753 130.33C83.7842 131.222 82.3408 131.222 81.4496 130.33C78.7161 127.597 74.2839 127.597 71.5503 130.33C70.6592 131.222 69.2158 131.222 68.3246 130.33C65.5911 127.597 61.1589 127.597 58.4253 130.33C57.5342 131.222 56.0908 131.222 55.1996 130.33C52.4661 127.597 48.0339 127.597 45.3003 130.33C44.6437 130.987 43.6588 131.178 42.8173 130.826Z" fill="url(#paint0_linear_8308_215)" stroke="url(#paint1_linear_8308_215)" stroke-width="2"/>
<path d="M76.5002 55.3029C74.6929 55.3029 73.219 53.832 73.219 52.0216C73.219 50.2112 74.6929 48.7404 76.5002 48.7404C78.3076 48.7404 79.7815 50.2112 79.7815 52.0216C79.7815 53.8353 81.2491 55.3029 83.0627 55.3029C84.8764 55.3029 86.344 53.8353 86.344 52.0216C86.344 47.7494 83.593 44.1414 79.7815 42.7823V38.8966C79.7815 37.0829 78.3139 35.6154 76.5002 35.6154C74.6866 35.6154 73.219 37.0829 73.219 38.8966V42.7823C69.4075 44.1414 66.6565 47.7494 66.6565 52.0216C66.6565 57.4497 71.0722 61.8654 76.5002 61.8654C78.3076 61.8654 79.7815 63.3362 79.7815 65.1466C79.7815 66.957 78.3076 68.4279 76.5002 68.4279C74.6929 68.4279 73.219 66.957 73.219 65.1466C73.219 63.333 71.7514 61.8654 69.9377 61.8654C68.1241 61.8654 66.6565 63.333 66.6565 65.1466C66.6565 69.4188 69.4075 73.0269 73.219 74.3859V78.2716C73.219 80.0853 74.6866 81.5529 76.5002 81.5529C78.3139 81.5529 79.7815 80.0853 79.7815 78.2716V74.3859C83.593 73.0271 86.344 69.4188 86.344 65.1466C86.344 59.7185 81.9285 55.3029 76.5002 55.3029ZM76.5002 88.1154H56.8127C54.9991 88.1154 53.5315 89.583 53.5315 91.3966C53.5315 93.2103 54.9991 94.6779 56.8127 94.6779H76.5002C78.3139 94.6779 79.7815 93.2103 79.7815 91.3966C79.7815 89.583 78.3139 88.1154 76.5002 88.1154ZM76.5002 101.24H56.8127C54.9991 101.24 53.5315 102.708 53.5315 104.522C53.5315 106.335 54.9991 107.803 56.8127 107.803H76.5002C78.3139 107.803 79.7815 106.335 79.7815 104.522C79.7815 102.708 78.3139 101.24 76.5002 101.24ZM89.6252 94.6779H96.1877C98.0014 94.6779 99.469 93.2103 99.469 91.3966C99.469 89.583 98.0014 88.1154 96.1877 88.1154H89.6252C87.8116 88.1154 86.344 89.583 86.344 91.3966C86.344 93.2103 87.8116 94.6779 89.6252 94.6779ZM96.1877 101.24H89.6252C87.8116 101.24 86.344 102.708 86.344 104.522C86.344 106.335 87.8116 107.803 89.6252 107.803H96.1877C98.0014 107.803 99.469 106.335 99.469 104.522C99.469 102.708 98.0014 101.24 96.1877 101.24Z" fill="white"/>
</g>
<defs>
<filter id="filter0_dd_8308_215" x="0.406128" y="0" width="152.188" height="192" filterUnits="userSpaceOnUse" color-interpolation-filters="sRGB">
<feFlood flood-opacity="0" result="BackgroundImageFix"/>
<feColorMatrix in="SourceAlpha" type="matrix" values="0 0 0 0 0 0 0 0 0 0 0 0 0 0 0 0 0 0 127 0" result="hardAlpha"/>
<feOffset dy="20"/>
<feGaussianBlur stdDeviation="20"/>
<feColorMatrix type="matrix" values="0 0 0 0 1 0 0 0 0 0.680498 0 0 0 0 0 0 0 0 0.29 0"/>
<feBlend mode="normal" in2="BackgroundImageFix" result="effect1_dropShadow_8308_215"/>
<feColorMatrix in="SourceAlpha" type="matrix" values="0 0 0 0 0 0 0 0 0 0 0 0 0 0 0 0 0 0 127 0" result="hardAlpha"/>
<feOffset dy="5"/>
<feGaussianBlur stdDeviation="5"/>
<feColorMatrix type="matrix" values="0 0 0 0 1 0 0 0 0 0.680498 0 0 0 0 0 0 0 0 0.26 0"/>
<feBlend mode="normal" in2="effect1_dropShadow_8308_215" result="effect2_dropShadow_8308_215"/>
<feBlend mode="normal" in="SourceGraphic" in2="effect2_dropShadow_8308_215" result="shape"/>
</filter>
<linearGradient id="paint0_linear_8308_215" x1="76.5" y1="-22.8026" x2="76.5" y2="169.452" gradientUnits="userSpaceOnUse">
<stop offset="0.630208" stop-color="#FFAE00"/>
<stop offset="1" stop-color="#FFCD1E"/>
</linearGradient>
<linearGradient id="paint1_linear_8308_215" x1="76.5" y1="20" x2="76.5" y2="132" gradientUnits="userSpaceOnUse">
<stop stop-color="#FF9F00"/>
<stop offset="1" stop-color="#FFB800"/>
</linearGradient>
</defs>
</svg>
